<svg fill="none" xmlns="http://www.w3.org/2000/svg" viewBox="0 0 2101 1070">
  <rect x="11.5" y="98.5" width="2078" height="595" rx="82.5" fill="url(#a)" stroke="#3F3F3F" stroke-width="23"/>
  <path stroke="#3F3F3F" stroke-width="20" d="M1055 0v872"/>
  <rect x="863.5" y="850.5" width="375" height="211" rx="48.5" fill="#CB6712" stroke="#3F3F3F" stroke-width="17"/>
  <path d="m963 963-16-4 6-43h49v15h-33l-2 17a28 28 0 0 1 12-3l11 2c4 1 6 3 9 5l5 9a39 39 0 0 1 0 23 27 27 0 0 1-15 16l-13 2a35 35 0 0 1-21-7l-7-8-2-10h20l1 5 4 4 5 1 4-1 4-3 1-5 1-6-1-6-2-4-4-3h-6l-6 1-4 3Zm112-12v15l-2 16c-1 5-3 8-6 11s-6 6-10 7l-12 2-9-1-9-4-6-8c-2-2-3-6-4-10l-1-13v-15c0-7 0-12 2-16 1-5 3-9 6-12l9-6c4-2 8-2 12-2l10 1a25 25 0 0 1 15 11l4 10 1 14Zm-20 18v-28l-1-5-2-4-3-2h-4l-4 1-3 3-2 5-1 9v21l1 7 1 5 2 3 3 2a10 10 0 0 0 8 0l3-3 2-6v-8Zm31-32v-5c0-3 0-6 2-9 1-2 3-5 6-6 3-2 6-3 10-3 5 0 8 1 11 3 3 1 5 4 6 6l3 9v5c0 3-1 6-3 8-1 3-3 5-6 7l-10 2-11-2c-3-2-5-4-6-7-2-2-2-5-2-8Zm12-5v5l1 3 2 3h7l2-3 1-3v-5l-1-3-2-3-4-1a6 6 0 0 0-5 4l-1 3Zm28 53v-5l2-9 7-6c2-2 6-2 10-2s8 0 11 2l6 6 2 9v5l-2 8c-1 3-3 5-6 7l-11 2-10-2-7-7-2-8Zm13-5v5l1 3 2 3 3 1 4-1 2-3v-11l-2-3-4-1a6 6 0 0 0-6 4v3Zm11-52-42 67-9-5 42-67 9 5Z" fill="#fff"/>
  <defs>
    <linearGradient id="a" x1="23" y1="396" x2="2078" y2="396" gradientUnits="userSpaceOnUse">
      <stop stop-color="#F9A800"/>
      <stop offset="1" stop-color="#9B2423"/>
    </linearGradient>
  </defs>
</svg>
