<svg width="321" height="434" viewBox="0 0 321 434" fill="none" xmlns="http://www.w3.org/2000/svg">
<path d="M248.39 81.7566C248.39 81.7566 238.254 91.2161 221.025 102.365C216.295 74.9999 203.119 41.2162 177.444 0C177.444 0 168.998 44.2567 140.957 85.8107C128.795 66.8918 123.39 52.0269 123.39 52.0269C35.552 140.202 108.525 202.702 154.471 202.702C213.254 202.702 264.944 174.324 248.39 81.7566" fill="#FF9D33"/>
<path d="M213.592 160.135C218.659 148.986 222.375 134.459 223.051 116.216C223.051 116.216 215.956 122.297 203.794 130.067C200.416 111.824 191.294 89.5269 173.389 61.8243C173.389 61.8243 167.646 91.2161 148.051 119.257C139.605 106.757 135.889 96.6215 135.889 96.6215C121.362 119.594 115.619 137.838 115.281 152.365C129.132 193.581 144.673 197.297 157.511 197.297C180.483 197.297 190.619 192.905 213.592 160.135C221.7 158.784 213.592 159.797 213.592 160.135Z" fill="#FFDF85"/>
<path d="M129.809 141.554C129.809 141.554 139.268 154.392 146.363 151.351C146.363 151.351 159.876 130.067 179.471 118.243C179.471 118.243 175.417 150.675 180.146 156.419C186.228 164.189 202.782 147.973 202.782 147.973C202.782 167.229 181.836 191.216 162.917 191.216C144.674 191.216 118.322 170.27 129.809 141.554" fill="#FFDF85"/>
<path d="M224.064 54.3918C231.159 44.2567 235.889 33.4459 235.889 33.4459C247.713 53.0405 240.618 64.8648 235.551 68.581C228.456 73.9864 215.956 66.2161 224.064 54.3918" fill="#FF9D33"/>
<path d="M95.0109 51.0134C87.9163 39.1891 87.2406 24.3242 87.2406 24.3242C70.3487 49.662 76.7676 63.8512 82.5109 67.9052C89.9433 73.6485 102.781 64.8647 95.0109 51.0134" fill="#FF9D33"/>
<path d="M134.2 24.6621C135.214 16.554 131.835 8.44592 131.835 8.44592C147.713 18.9189 147.714 27.7027 145.686 31.4189C142.646 35.8107 133.186 33.7837 134.2 24.6621" fill="#FF9D33"/>
<path d="M261.895 254.709C261.895 204.891 235.001 163.186 188.099 152.152L170.06 187.923L152.6 187.923L138.901 152.152C91.8355 163.186 65.1048 204.728 65.1048 254.709V335.846L32.3064 368.3V384.528H294.694V368.3L261.895 335.846V254.709ZM163.5 433.21C165.796 433.21 167.928 433.048 170.06 432.561C180.719 430.289 189.411 423.149 193.675 413.413C195.314 409.518 196.134 405.299 196.134 400.755H130.538C130.702 418.605 145.297 433.21 163.5 433.21Z" fill="#FFDF85"/>
<path d="M64 132.5C26.5 161 5.89207 198.637 0 246.595H32.7984C38.2974 205.744 43.9678 189.261 72 162C67 156 63 142 64 132.5Z" fill="#FFDF85"/>
<path d="M263.5 137.5C273.5 140 320.785 194.755 320 246H287.202C281.5 208 272 188.5 252 170.5C259 163 263.5 152.5 263.5 137.5Z" fill="#FFDF85"/>
</svg>
